<mxfile host="app.diagrams.net" agent="Mozilla/5.0 (Windows NT 10.0; Win64; x64) AppleWebKit/537.36 (KHTML, like Gecko) Chrome/134.0.0.0 Safari/537.36 OPR/119.0.0.0" version="27.1.1">
  <diagram name="StrÃ¡nka-1" id="fRPN_2NgZ28MRPynb4aS">
    <mxGraphModel dx="2224" dy="775" grid="1" gridSize="10" guides="1" tooltips="1" connect="1" arrows="1" fold="1" page="1" pageScale="1" pageWidth="827" pageHeight="1169" math="0" shadow="0">
      <root>
        <mxCell id="0" />
        <mxCell id="1" parent="0" />
        <mxCell id="V_HHc_hEDq7xW66CQ3Zf-48" style="edgeStyle=orthogonalEdgeStyle;rounded=0;orthogonalLoop=1;jettySize=auto;html=1;entryX=1;entryY=0.5;entryDx=0;entryDy=0;endArrow=none;startFill=0;startArrow=none;" edge="1" parent="1" source="V_HHc_hEDq7xW66CQ3Zf-2" target="V_HHc_hEDq7xW66CQ3Zf-32">
          <mxGeometry relative="1" as="geometry" />
        </mxCell>
        <mxCell id="V_HHc_hEDq7xW66CQ3Zf-2" value="Wysoka" style="whiteSpace=wrap;html=1;aspect=fixed;" vertex="1" parent="1">
          <mxGeometry x="10" y="540" width="80" height="80" as="geometry" />
        </mxCell>
        <mxCell id="V_HHc_hEDq7xW66CQ3Zf-37" style="edgeStyle=orthogonalEdgeStyle;rounded=0;orthogonalLoop=1;jettySize=auto;html=1;entryX=0.5;entryY=1;entryDx=0;entryDy=0;endArrow=none;startFill=0;startArrow=none;" edge="1" parent="1" source="V_HHc_hEDq7xW66CQ3Zf-6" target="V_HHc_hEDq7xW66CQ3Zf-28">
          <mxGeometry relative="1" as="geometry" />
        </mxCell>
        <mxCell id="V_HHc_hEDq7xW66CQ3Zf-46" style="edgeStyle=orthogonalEdgeStyle;rounded=0;orthogonalLoop=1;jettySize=auto;html=1;entryX=0.5;entryY=0;entryDx=0;entryDy=0;endArrow=none;startFill=0;startArrow=none;" edge="1" parent="1" source="V_HHc_hEDq7xW66CQ3Zf-6" target="V_HHc_hEDq7xW66CQ3Zf-2">
          <mxGeometry relative="1" as="geometry" />
        </mxCell>
        <mxCell id="V_HHc_hEDq7xW66CQ3Zf-47" style="edgeStyle=orthogonalEdgeStyle;rounded=0;orthogonalLoop=1;jettySize=auto;html=1;entryX=1;entryY=0.5;entryDx=0;entryDy=0;endArrow=none;startFill=0;startArrow=none;" edge="1" parent="1" source="V_HHc_hEDq7xW66CQ3Zf-6" target="V_HHc_hEDq7xW66CQ3Zf-31">
          <mxGeometry relative="1" as="geometry" />
        </mxCell>
        <mxCell id="V_HHc_hEDq7xW66CQ3Zf-6" value="Suchdol" style="whiteSpace=wrap;html=1;aspect=fixed;" vertex="1" parent="1">
          <mxGeometry x="10" y="410" width="80" height="80" as="geometry" />
        </mxCell>
        <mxCell id="V_HHc_hEDq7xW66CQ3Zf-49" style="edgeStyle=orthogonalEdgeStyle;rounded=0;orthogonalLoop=1;jettySize=auto;html=1;entryX=0.5;entryY=0;entryDx=0;entryDy=0;endArrow=none;startFill=0;startArrow=none;" edge="1" parent="1" source="V_HHc_hEDq7xW66CQ3Zf-10" target="V_HHc_hEDq7xW66CQ3Zf-44">
          <mxGeometry relative="1" as="geometry" />
        </mxCell>
        <mxCell id="V_HHc_hEDq7xW66CQ3Zf-51" style="edgeStyle=orthogonalEdgeStyle;rounded=0;orthogonalLoop=1;jettySize=auto;html=1;entryX=1;entryY=0.5;entryDx=0;entryDy=0;endArrow=none;startFill=0;startArrow=none;" edge="1" parent="1" source="V_HHc_hEDq7xW66CQ3Zf-10" target="V_HHc_hEDq7xW66CQ3Zf-6">
          <mxGeometry relative="1" as="geometry" />
        </mxCell>
        <mxCell id="V_HHc_hEDq7xW66CQ3Zf-54" style="edgeStyle=orthogonalEdgeStyle;rounded=0;orthogonalLoop=1;jettySize=auto;html=1;entryX=0;entryY=0.5;entryDx=0;entryDy=0;endArrow=none;startFill=0;startArrow=none;" edge="1" parent="1" source="V_HHc_hEDq7xW66CQ3Zf-10" target="V_HHc_hEDq7xW66CQ3Zf-43">
          <mxGeometry relative="1" as="geometry" />
        </mxCell>
        <mxCell id="V_HHc_hEDq7xW66CQ3Zf-10" value="Miskowitz" style="whiteSpace=wrap;html=1;aspect=fixed;" vertex="1" parent="1">
          <mxGeometry x="140" y="410" width="80" height="80" as="geometry" />
        </mxCell>
        <mxCell id="V_HHc_hEDq7xW66CQ3Zf-59" style="edgeStyle=orthogonalEdgeStyle;rounded=0;orthogonalLoop=1;jettySize=auto;html=1;entryX=0;entryY=0.5;entryDx=0;entryDy=0;endArrow=none;startFill=0;startArrow=none;" edge="1" parent="1" source="V_HHc_hEDq7xW66CQ3Zf-16" target="V_HHc_hEDq7xW66CQ3Zf-58">
          <mxGeometry relative="1" as="geometry" />
        </mxCell>
        <mxCell id="V_HHc_hEDq7xW66CQ3Zf-63" style="edgeStyle=orthogonalEdgeStyle;rounded=0;orthogonalLoop=1;jettySize=auto;html=1;entryX=0.5;entryY=0;entryDx=0;entryDy=0;endArrow=none;startFill=0;startArrow=none;" edge="1" parent="1" source="V_HHc_hEDq7xW66CQ3Zf-16" target="V_HHc_hEDq7xW66CQ3Zf-62">
          <mxGeometry relative="1" as="geometry" />
        </mxCell>
        <mxCell id="V_HHc_hEDq7xW66CQ3Zf-16" value="Kuttenberg" style="whiteSpace=wrap;html=1;aspect=fixed;" vertex="1" parent="1">
          <mxGeometry x="400" y="410" width="80" height="80" as="geometry" />
        </mxCell>
        <mxCell id="V_HHc_hEDq7xW66CQ3Zf-26" value="Maleshov" style="whiteSpace=wrap;html=1;aspect=fixed;" vertex="1" parent="1">
          <mxGeometry x="140" y="670" width="80" height="80" as="geometry" />
        </mxCell>
        <mxCell id="V_HHc_hEDq7xW66CQ3Zf-40" style="edgeStyle=orthogonalEdgeStyle;rounded=0;orthogonalLoop=1;jettySize=auto;html=1;entryX=0;entryY=0.5;entryDx=0;entryDy=0;endArrow=none;startFill=0;startArrow=none;" edge="1" parent="1" source="V_HHc_hEDq7xW66CQ3Zf-27" target="V_HHc_hEDq7xW66CQ3Zf-29">
          <mxGeometry relative="1" as="geometry" />
        </mxCell>
        <mxCell id="V_HHc_hEDq7xW66CQ3Zf-53" style="edgeStyle=orthogonalEdgeStyle;rounded=0;orthogonalLoop=1;jettySize=auto;html=1;entryX=0.5;entryY=0;entryDx=0;entryDy=0;endArrow=none;startFill=0;startArrow=none;" edge="1" parent="1" source="V_HHc_hEDq7xW66CQ3Zf-27" target="V_HHc_hEDq7xW66CQ3Zf-10">
          <mxGeometry relative="1" as="geometry" />
        </mxCell>
        <mxCell id="V_HHc_hEDq7xW66CQ3Zf-27" value="Grund" style="whiteSpace=wrap;html=1;aspect=fixed;" vertex="1" parent="1">
          <mxGeometry x="140" y="280" width="80" height="80" as="geometry" />
        </mxCell>
        <mxCell id="V_HHc_hEDq7xW66CQ3Zf-38" style="edgeStyle=orthogonalEdgeStyle;rounded=0;orthogonalLoop=1;jettySize=auto;html=1;entryX=0.5;entryY=1;entryDx=0;entryDy=0;endArrow=none;startFill=0;startArrow=none;" edge="1" parent="1" source="V_HHc_hEDq7xW66CQ3Zf-28" target="V_HHc_hEDq7xW66CQ3Zf-30">
          <mxGeometry relative="1" as="geometry" />
        </mxCell>
        <mxCell id="V_HHc_hEDq7xW66CQ3Zf-52" style="edgeStyle=orthogonalEdgeStyle;rounded=0;orthogonalLoop=1;jettySize=auto;html=1;entryX=0;entryY=0.5;entryDx=0;entryDy=0;endArrow=none;startFill=0;startArrow=none;" edge="1" parent="1" source="V_HHc_hEDq7xW66CQ3Zf-28" target="V_HHc_hEDq7xW66CQ3Zf-27">
          <mxGeometry relative="1" as="geometry" />
        </mxCell>
        <mxCell id="V_HHc_hEDq7xW66CQ3Zf-28" value="Opatowitz" style="whiteSpace=wrap;html=1;aspect=fixed;" vertex="1" parent="1">
          <mxGeometry x="10" y="280" width="80" height="80" as="geometry" />
        </mxCell>
        <mxCell id="V_HHc_hEDq7xW66CQ3Zf-57" style="edgeStyle=orthogonalEdgeStyle;rounded=0;orthogonalLoop=1;jettySize=auto;html=1;entryX=0.5;entryY=0;entryDx=0;entryDy=0;endArrow=none;startFill=0;startArrow=none;" edge="1" parent="1" source="V_HHc_hEDq7xW66CQ3Zf-29" target="V_HHc_hEDq7xW66CQ3Zf-43">
          <mxGeometry relative="1" as="geometry" />
        </mxCell>
        <mxCell id="V_HHc_hEDq7xW66CQ3Zf-29" value="Shop" style="whiteSpace=wrap;html=1;aspect=fixed;" vertex="1" parent="1">
          <mxGeometry x="270" y="280" width="80" height="80" as="geometry" />
        </mxCell>
        <mxCell id="V_HHc_hEDq7xW66CQ3Zf-30" value="House" style="whiteSpace=wrap;html=1;aspect=fixed;" vertex="1" parent="1">
          <mxGeometry x="10" y="150" width="80" height="80" as="geometry" />
        </mxCell>
        <mxCell id="V_HHc_hEDq7xW66CQ3Zf-31" value="Traveler" style="whiteSpace=wrap;html=1;aspect=fixed;" vertex="1" parent="1">
          <mxGeometry x="-120" y="410" width="80" height="80" as="geometry" />
        </mxCell>
        <mxCell id="V_HHc_hEDq7xW66CQ3Zf-32" value="Shop" style="whiteSpace=wrap;html=1;aspect=fixed;" vertex="1" parent="1">
          <mxGeometry x="-120" y="540" width="80" height="80" as="geometry" />
        </mxCell>
        <mxCell id="V_HHc_hEDq7xW66CQ3Zf-33" value="House" style="whiteSpace=wrap;html=1;aspect=fixed;" vertex="1" parent="1">
          <mxGeometry x="270" y="540" width="80" height="80" as="geometry" />
        </mxCell>
        <mxCell id="V_HHc_hEDq7xW66CQ3Zf-55" style="edgeStyle=orthogonalEdgeStyle;rounded=0;orthogonalLoop=1;jettySize=auto;html=1;entryX=0.5;entryY=0;entryDx=0;entryDy=0;endArrow=none;startFill=0;startArrow=none;" edge="1" parent="1" source="V_HHc_hEDq7xW66CQ3Zf-43" target="V_HHc_hEDq7xW66CQ3Zf-33">
          <mxGeometry relative="1" as="geometry" />
        </mxCell>
        <mxCell id="V_HHc_hEDq7xW66CQ3Zf-56" style="edgeStyle=orthogonalEdgeStyle;rounded=0;orthogonalLoop=1;jettySize=auto;html=1;entryX=0;entryY=0.5;entryDx=0;entryDy=0;endArrow=none;startFill=0;startArrow=none;" edge="1" parent="1" source="V_HHc_hEDq7xW66CQ3Zf-43" target="V_HHc_hEDq7xW66CQ3Zf-16">
          <mxGeometry relative="1" as="geometry" />
        </mxCell>
        <mxCell id="V_HHc_hEDq7xW66CQ3Zf-43" value="Forest" style="whiteSpace=wrap;html=1;aspect=fixed;" vertex="1" parent="1">
          <mxGeometry x="270" y="410" width="80" height="80" as="geometry" />
        </mxCell>
        <mxCell id="V_HHc_hEDq7xW66CQ3Zf-50" style="edgeStyle=orthogonalEdgeStyle;rounded=0;orthogonalLoop=1;jettySize=auto;html=1;entryX=0.5;entryY=0;entryDx=0;entryDy=0;endArrow=none;startFill=0;startArrow=none;" edge="1" parent="1" source="V_HHc_hEDq7xW66CQ3Zf-44" target="V_HHc_hEDq7xW66CQ3Zf-26">
          <mxGeometry relative="1" as="geometry" />
        </mxCell>
        <mxCell id="V_HHc_hEDq7xW66CQ3Zf-44" value="Forest" style="whiteSpace=wrap;html=1;aspect=fixed;" vertex="1" parent="1">
          <mxGeometry x="140" y="540" width="80" height="80" as="geometry" />
        </mxCell>
        <mxCell id="V_HHc_hEDq7xW66CQ3Zf-58" value="Shop" style="whiteSpace=wrap;html=1;aspect=fixed;" vertex="1" parent="1">
          <mxGeometry x="530" y="410" width="80" height="80" as="geometry" />
        </mxCell>
        <mxCell id="V_HHc_hEDq7xW66CQ3Zf-62" value="Motel" style="whiteSpace=wrap;html=1;aspect=fixed;" vertex="1" parent="1">
          <mxGeometry x="400" y="540" width="80" height="80" as="geometry" />
        </mxCell>
      </root>
    </mxGraphModel>
  </diagram>
</mxfile>
